<svg width="223" height="56" viewBox="0 0 223 56" fill="none" xmlns="http://www.w3.org/2000/svg">
<rect x="142.968" y="39.1" width="80" height="16" fill="url(#paint0_linear_22_74)"/>
<path d="M0 43.74V8.70003H5.136V13.74H6.24L5.136 14.94C5.136 12.86 5.776 11.228 7.056 10.044C8.368 8.82803 10.112 8.22003 12.288 8.22003C14.944 8.22003 17.056 9.11603 18.624 10.908C20.224 12.668 21.024 15.084 21.024 18.156V25.596C21.024 27.644 20.656 29.42 19.92 30.924C19.216 32.396 18.208 33.548 16.896 34.38C15.616 35.18 14.08 35.58 12.288 35.58C10.144 35.58 8.416 34.988 7.104 33.804C5.792 32.588 5.136 30.94 5.136 28.86L6.24 30.06H5.04L5.184 36.204V43.74H0ZM10.512 31.068C12.208 31.068 13.52 30.588 14.448 29.628C15.408 28.636 15.888 27.212 15.888 25.356V18.444C15.888 16.588 15.408 15.18 14.448 14.22C13.52 13.228 12.208 12.732 10.512 12.732C8.88 12.732 7.584 13.244 6.624 14.268C5.664 15.26 5.184 16.652 5.184 18.444V25.356C5.184 27.148 5.664 28.556 6.624 29.58C7.584 30.572 8.88 31.068 10.512 31.068Z" fill="white"/>
<path d="M36.5093 35.58C33.7573 35.58 31.5813 34.876 29.9813 33.468C28.4132 32.028 27.6292 30.076 27.6292 27.612C27.6292 25.116 28.4613 23.164 30.1252 21.756C31.8213 20.316 34.1413 19.596 37.0853 19.596H44.4293V17.148C44.4293 15.708 43.9813 14.588 43.0853 13.788C42.1893 12.988 40.9253 12.588 39.2933 12.588C37.8533 12.588 36.6532 12.908 35.6932 13.548C34.7332 14.156 34.1732 14.972 34.0132 15.996H28.9252C29.2132 13.628 30.3013 11.74 32.1893 10.332C34.1093 8.92403 36.5253 8.22003 39.4373 8.22003C42.5732 8.22003 45.0532 9.02003 46.8773 10.62C48.7012 12.188 49.6133 14.332 49.6133 17.052V35.1H44.5732V30.252H43.7093L44.5732 29.292C44.5732 31.212 43.8372 32.748 42.3652 33.9C40.8932 35.02 38.9412 35.58 36.5093 35.58ZM38.0452 31.596C39.9012 31.596 41.4212 31.132 42.6053 30.204C43.8213 29.244 44.4293 28.028 44.4293 26.556V23.1H37.1813C35.8372 23.1 34.7652 23.468 33.9652 24.204C33.1973 24.94 32.8133 25.948 32.8133 27.228C32.8133 28.572 33.2772 29.644 34.2052 30.444C35.1333 31.212 36.4132 31.596 38.0452 31.596Z" fill="white"/>
<path d="M71.7225 35.1C70.0905 35.1 68.6665 34.78 67.4505 34.14C66.2345 33.468 65.2745 32.524 64.5705 31.308C63.8985 30.092 63.5625 28.684 63.5625 27.084V4.76403H54.9225V0.0600281H68.7465V27.084C68.7465 28.108 69.0345 28.924 69.6105 29.532C70.1865 30.108 70.9705 30.396 71.9625 30.396H80.1225V35.1H71.7225Z" fill="white"/>
<path d="M96.7118 35.58C94.5678 35.58 92.6797 35.164 91.0478 34.332C89.4478 33.468 88.2158 32.268 87.3518 30.732C86.4878 29.196 86.0557 27.404 86.0557 25.356V18.444C86.0557 16.364 86.4878 14.572 87.3518 13.068C88.2158 11.532 89.4478 10.348 91.0478 9.51603C92.6797 8.65203 94.5678 8.22003 96.7118 8.22003C98.8878 8.22003 100.776 8.65203 102.376 9.51603C103.976 10.348 105.208 11.532 106.072 13.068C106.936 14.572 107.368 16.364 107.368 18.444V23.148H91.0478V25.356C91.0478 27.308 91.5277 28.796 92.4877 29.82C93.4797 30.844 94.9037 31.356 96.7598 31.356C98.2637 31.356 99.4798 31.1 100.408 30.588C101.336 30.044 101.912 29.26 102.136 28.236H107.272C106.888 30.476 105.736 32.268 103.816 33.612C101.896 34.924 99.5278 35.58 96.7118 35.58ZM102.376 20.028V18.396C102.376 16.476 101.896 14.988 100.936 13.932C99.9758 12.876 98.5678 12.348 96.7118 12.348C94.8878 12.348 93.4797 12.876 92.4877 13.932C91.5277 14.988 91.0478 16.492 91.0478 18.444V19.644L102.76 19.596L102.376 20.028Z" fill="white"/>
<path d="M128.373 35.1C125.973 35.1 124.101 34.444 122.757 33.132C121.413 31.82 120.741 29.996 120.741 27.66V13.404H113.445V8.70003H120.741V1.26003H125.925V8.70003H136.245V13.404H125.925V27.66C125.925 29.484 126.805 30.396 128.565 30.396H135.765V35.1H128.373Z" fill="white"/>
<path d="M151.634 35.58C148.882 35.58 146.706 34.876 145.106 33.468C143.538 32.028 142.754 30.076 142.754 27.612C142.754 25.116 143.586 23.164 145.25 21.756C146.946 20.316 149.266 19.596 152.21 19.596H159.554V17.148C159.554 15.708 159.106 14.588 158.21 13.788C157.314 12.988 156.05 12.588 154.418 12.588C152.978 12.588 151.778 12.908 150.818 13.548C149.858 14.156 149.298 14.972 149.138 15.996H144.05C144.338 13.628 145.426 11.74 147.314 10.332C149.234 8.92403 151.65 8.22003 154.562 8.22003C157.698 8.22003 160.178 9.02003 162.002 10.62C163.826 12.188 164.738 14.332 164.738 17.052V35.1H159.698V30.252H158.834L159.698 29.292C159.698 31.212 158.962 32.748 157.49 33.9C156.018 35.02 154.066 35.58 151.634 35.58ZM153.17 31.596C155.026 31.596 156.546 31.132 157.73 30.204C158.946 29.244 159.554 28.028 159.554 26.556V23.1H152.306C150.962 23.1 149.89 23.468 149.09 24.204C148.322 24.94 147.938 25.948 147.938 27.228C147.938 28.572 148.402 29.644 149.33 30.444C150.258 31.212 151.538 31.596 153.17 31.596Z" fill="white"/>
<path d="M180.415 35.58C177.663 35.58 175.488 34.876 173.887 33.468C172.32 32.028 171.536 30.076 171.536 27.612C171.536 25.116 172.367 23.164 174.031 21.756C175.727 20.316 178.048 19.596 180.992 19.596H188.335V17.148C188.335 15.708 187.887 14.588 186.992 13.788C186.096 12.988 184.831 12.588 183.199 12.588C181.759 12.588 180.56 12.908 179.6 13.548C178.639 14.156 178.079 14.972 177.919 15.996H172.831C173.119 13.628 174.208 11.74 176.096 10.332C178.016 8.92403 180.432 8.22003 183.344 8.22003C186.48 8.22003 188.96 9.02003 190.784 10.62C192.608 12.188 193.52 14.332 193.52 17.052V35.1H188.48V30.252H187.615L188.48 29.292C188.48 31.212 187.743 32.748 186.271 33.9C184.799 35.02 182.848 35.58 180.415 35.58ZM181.952 31.596C183.808 31.596 185.327 31.132 186.512 30.204C187.728 29.244 188.335 28.028 188.335 26.556V23.1H181.087C179.743 23.1 178.672 23.468 177.872 24.204C177.104 24.94 176.719 25.948 176.719 27.228C176.719 28.572 177.184 29.644 178.111 30.444C179.039 31.212 180.32 31.596 181.952 31.596Z" fill="white"/>
<path d="M209.197 35.58C206.445 35.58 204.269 34.876 202.669 33.468C201.101 32.028 200.317 30.076 200.317 27.612C200.317 25.116 201.149 23.164 202.813 21.756C204.509 20.316 206.829 19.596 209.773 19.596H217.117V17.148C217.117 15.708 216.669 14.588 215.773 13.788C214.877 12.988 213.613 12.588 211.981 12.588C210.541 12.588 209.341 12.908 208.381 13.548C207.421 14.156 206.861 14.972 206.701 15.996H201.613C201.901 13.628 202.989 11.74 204.877 10.332C206.797 8.92403 209.213 8.22003 212.125 8.22003C215.261 8.22003 217.741 9.02003 219.565 10.62C221.389 12.188 222.301 14.332 222.301 17.052V35.1H217.261V30.252H216.397L217.261 29.292C217.261 31.212 216.525 32.748 215.053 33.9C213.581 35.02 211.629 35.58 209.197 35.58ZM210.733 31.596C212.589 31.596 214.109 31.132 215.293 30.204C216.509 29.244 217.117 28.028 217.117 26.556V23.1H209.869C208.525 23.1 207.453 23.468 206.653 24.204C205.885 24.94 205.501 25.948 205.501 27.228C205.501 28.572 205.965 29.644 206.893 30.444C207.821 31.212 209.101 31.596 210.733 31.596Z" fill="white"/>
<defs>
<linearGradient id="paint0_linear_22_74" x1="142.968" y1="47.1" x2="222.968" y2="47.1" gradientUnits="userSpaceOnUse">
<stop stop-color="#FF1616"/>
<stop offset="0.169821" stop-color="#8C52FF"/>
<stop offset="0.355592" stop-color="#5271FF"/>
<stop offset="0.525348" stop-color="#7ED957"/>
<stop offset="0.679089" stop-color="#FFDE59"/>
<stop offset="0.829627" stop-color="#FF914D"/>
<stop offset="1" stop-color="#FF1616"/>
</linearGradient>
</defs>
</svg>
