<svg width="223" height="56" viewBox="0 0 223 56" fill="none" xmlns="http://www.w3.org/2000/svg">
<rect x="142.968" y="39.06" width="80" height="16" fill="url(#paint0_linear_21_223)"/>
<path d="M0 43.7V8.66002H5.136V13.7H6.24L5.136 14.9C5.136 12.82 5.776 11.188 7.056 10.004C8.368 8.78802 10.112 8.18002 12.288 8.18002C14.944 8.18002 17.056 9.07602 18.624 10.868C20.224 12.628 21.024 15.044 21.024 18.116V25.556C21.024 27.604 20.656 29.38 19.92 30.884C19.216 32.356 18.208 33.508 16.896 34.34C15.616 35.14 14.08 35.54 12.288 35.54C10.144 35.54 8.416 34.948 7.104 33.764C5.792 32.548 5.136 30.9 5.136 28.82L6.24 30.02H5.04L5.184 36.164V43.7H0ZM10.512 31.028C12.208 31.028 13.52 30.548 14.448 29.588C15.408 28.596 15.888 27.172 15.888 25.316V18.404C15.888 16.548 15.408 15.14 14.448 14.18C13.52 13.188 12.208 12.692 10.512 12.692C8.88 12.692 7.584 13.204 6.624 14.228C5.664 15.22 5.184 16.612 5.184 18.404V25.316C5.184 27.108 5.664 28.516 6.624 29.54C7.584 30.532 8.88 31.028 10.512 31.028Z" fill="black"/>
<path d="M36.5093 35.54C33.7573 35.54 31.5813 34.836 29.9813 33.428C28.4132 31.988 27.6292 30.036 27.6292 27.572C27.6292 25.076 28.4613 23.124 30.1252 21.716C31.8213 20.276 34.1413 19.556 37.0853 19.556H44.4293V17.108C44.4293 15.668 43.9813 14.548 43.0853 13.748C42.1893 12.948 40.9253 12.548 39.2933 12.548C37.8533 12.548 36.6532 12.868 35.6932 13.508C34.7332 14.116 34.1732 14.932 34.0132 15.956H28.9252C29.2132 13.588 30.3013 11.7 32.1893 10.292C34.1093 8.88402 36.5253 8.18002 39.4373 8.18002C42.5732 8.18002 45.0532 8.98002 46.8773 10.58C48.7012 12.148 49.6133 14.292 49.6133 17.012V35.06H44.5732V30.212H43.7093L44.5732 29.252C44.5732 31.172 43.8372 32.708 42.3652 33.86C40.8932 34.98 38.9412 35.54 36.5093 35.54ZM38.0452 31.556C39.9012 31.556 41.4212 31.092 42.6053 30.164C43.8213 29.204 44.4293 27.988 44.4293 26.516V23.06H37.1813C35.8372 23.06 34.7652 23.428 33.9652 24.164C33.1973 24.9 32.8133 25.908 32.8133 27.188C32.8133 28.532 33.2772 29.604 34.2052 30.404C35.1333 31.172 36.4132 31.556 38.0452 31.556Z" fill="black"/>
<path d="M71.7225 35.06C70.0905 35.06 68.6665 34.74 67.4505 34.1C66.2345 33.428 65.2745 32.484 64.5705 31.268C63.8985 30.052 63.5625 28.644 63.5625 27.044V4.72402H54.9225V0.0200195H68.7465V27.044C68.7465 28.068 69.0345 28.884 69.6105 29.492C70.1865 30.068 70.9705 30.356 71.9625 30.356H80.1225V35.06H71.7225Z" fill="black"/>
<path d="M96.7118 35.54C94.5678 35.54 92.6797 35.124 91.0478 34.292C89.4478 33.428 88.2158 32.228 87.3518 30.692C86.4878 29.156 86.0557 27.364 86.0557 25.316V18.404C86.0557 16.324 86.4878 14.532 87.3518 13.028C88.2158 11.492 89.4478 10.308 91.0478 9.47602C92.6797 8.61202 94.5678 8.18002 96.7118 8.18002C98.8878 8.18002 100.776 8.61202 102.376 9.47602C103.976 10.308 105.208 11.492 106.072 13.028C106.936 14.532 107.368 16.324 107.368 18.404V23.108H91.0478V25.316C91.0478 27.268 91.5277 28.756 92.4877 29.78C93.4797 30.804 94.9037 31.316 96.7598 31.316C98.2637 31.316 99.4798 31.06 100.408 30.548C101.336 30.004 101.912 29.22 102.136 28.196H107.272C106.888 30.436 105.736 32.228 103.816 33.572C101.896 34.884 99.5278 35.54 96.7118 35.54ZM102.376 19.988V18.356C102.376 16.436 101.896 14.948 100.936 13.892C99.9758 12.836 98.5678 12.308 96.7118 12.308C94.8878 12.308 93.4797 12.836 92.4877 13.892C91.5277 14.948 91.0478 16.452 91.0478 18.404V19.604L102.76 19.556L102.376 19.988Z" fill="black"/>
<path d="M128.373 35.06C125.973 35.06 124.101 34.404 122.757 33.092C121.413 31.78 120.741 29.956 120.741 27.62V13.364H113.445V8.66002H120.741V1.22002H125.925V8.66002H136.245V13.364H125.925V27.62C125.925 29.444 126.805 30.356 128.565 30.356H135.765V35.06H128.373Z" fill="black"/>
<path d="M151.634 35.54C148.882 35.54 146.706 34.836 145.106 33.428C143.538 31.988 142.754 30.036 142.754 27.572C142.754 25.076 143.586 23.124 145.25 21.716C146.946 20.276 149.266 19.556 152.21 19.556H159.554V17.108C159.554 15.668 159.106 14.548 158.21 13.748C157.314 12.948 156.05 12.548 154.418 12.548C152.978 12.548 151.778 12.868 150.818 13.508C149.858 14.116 149.298 14.932 149.138 15.956H144.05C144.338 13.588 145.426 11.7 147.314 10.292C149.234 8.88402 151.65 8.18002 154.562 8.18002C157.698 8.18002 160.178 8.98002 162.002 10.58C163.826 12.148 164.738 14.292 164.738 17.012V35.06H159.698V30.212H158.834L159.698 29.252C159.698 31.172 158.962 32.708 157.49 33.86C156.018 34.98 154.066 35.54 151.634 35.54ZM153.17 31.556C155.026 31.556 156.546 31.092 157.73 30.164C158.946 29.204 159.554 27.988 159.554 26.516V23.06H152.306C150.962 23.06 149.89 23.428 149.09 24.164C148.322 24.9 147.938 25.908 147.938 27.188C147.938 28.532 148.402 29.604 149.33 30.404C150.258 31.172 151.538 31.556 153.17 31.556Z" fill="black"/>
<path d="M180.415 35.54C177.663 35.54 175.488 34.836 173.887 33.428C172.32 31.988 171.536 30.036 171.536 27.572C171.536 25.076 172.367 23.124 174.031 21.716C175.727 20.276 178.048 19.556 180.992 19.556H188.335V17.108C188.335 15.668 187.887 14.548 186.992 13.748C186.096 12.948 184.831 12.548 183.199 12.548C181.759 12.548 180.56 12.868 179.6 13.508C178.639 14.116 178.079 14.932 177.919 15.956H172.831C173.119 13.588 174.208 11.7 176.096 10.292C178.016 8.88402 180.432 8.18002 183.344 8.18002C186.48 8.18002 188.96 8.98002 190.784 10.58C192.608 12.148 193.52 14.292 193.52 17.012V35.06H188.48V30.212H187.615L188.48 29.252C188.48 31.172 187.743 32.708 186.271 33.86C184.799 34.98 182.848 35.54 180.415 35.54ZM181.952 31.556C183.808 31.556 185.327 31.092 186.512 30.164C187.728 29.204 188.335 27.988 188.335 26.516V23.06H181.087C179.743 23.06 178.672 23.428 177.872 24.164C177.104 24.9 176.719 25.908 176.719 27.188C176.719 28.532 177.184 29.604 178.111 30.404C179.039 31.172 180.32 31.556 181.952 31.556Z" fill="black"/>
<path d="M209.197 35.54C206.445 35.54 204.269 34.836 202.669 33.428C201.101 31.988 200.317 30.036 200.317 27.572C200.317 25.076 201.149 23.124 202.813 21.716C204.509 20.276 206.829 19.556 209.773 19.556H217.117V17.108C217.117 15.668 216.669 14.548 215.773 13.748C214.877 12.948 213.613 12.548 211.981 12.548C210.541 12.548 209.341 12.868 208.381 13.508C207.421 14.116 206.861 14.932 206.701 15.956H201.613C201.901 13.588 202.989 11.7 204.877 10.292C206.797 8.88402 209.213 8.18002 212.125 8.18002C215.261 8.18002 217.741 8.98002 219.565 10.58C221.389 12.148 222.301 14.292 222.301 17.012V35.06H217.261V30.212H216.397L217.261 29.252C217.261 31.172 216.525 32.708 215.053 33.86C213.581 34.98 211.629 35.54 209.197 35.54ZM210.733 31.556C212.589 31.556 214.109 31.092 215.293 30.164C216.509 29.204 217.117 27.988 217.117 26.516V23.06H209.869C208.525 23.06 207.453 23.428 206.653 24.164C205.885 24.9 205.501 25.908 205.501 27.188C205.501 28.532 205.965 29.604 206.893 30.404C207.821 31.172 209.101 31.556 210.733 31.556Z" fill="black"/>
<defs>
<linearGradient id="paint0_linear_21_223" x1="142.968" y1="47.06" x2="222.968" y2="47.06" gradientUnits="userSpaceOnUse">
<stop stop-color="#FF1616"/>
<stop offset="0.169821" stop-color="#8C52FF"/>
<stop offset="0.355592" stop-color="#5271FF"/>
<stop offset="0.525348" stop-color="#7ED957"/>
<stop offset="0.679089" stop-color="#FFDE59"/>
<stop offset="0.829627" stop-color="#FF914D"/>
<stop offset="1" stop-color="#FF1616"/>
</linearGradient>
</defs>
</svg>
